<svg version="1.1" id="Layer_1" xmlns="http://www.w3.org/2000/svg" xmlns:xlink="http://www.w3.org/1999/xlink" x="0px" y="0px"
	 width="100%" viewBox="0 0 512 512" enable-background="new 0 0 512 512" xml:space="preserve">
<path fill="#000000" opacity="1.000000" stroke="none" 
	d="
M481.000000,513.000000 
	C321.034210,513.000000 161.068420,513.000000 1.051312,513.000000 
	C1.051312,342.404053 1.051312,171.808075 1.051312,1.106046 
	C171.559433,1.106046 342.118958,1.106046 513.000000,1.106046 
	C513.000000,163.691422 513.000000,326.383057 512.726196,489.724792 
	C508.644440,494.059448 504.454193,496.913727 499.386017,498.916229 
	C493.485046,501.247772 487.173950,503.211273 482.605255,508.102173 
	C481.344604,509.451660 479.127258,510.583710 481.000000,513.000000 
M379.968262,46.753605 
	C366.046356,45.394321 352.126831,44.009594 338.201935,42.681980 
	C319.305817,40.880405 300.413574,39.028652 281.502197,37.401726 
	C275.634094,36.896896 274.698425,37.991543 274.747345,43.701618 
	C274.995758,72.688553 275.267670,101.675301 275.566162,130.661758 
	C275.625763,136.450058 275.065186,137.114822 269.255676,136.101196 
	C246.940262,132.207672 224.820572,127.429665 203.083435,120.999168 
	C201.745331,120.603325 200.002457,120.527779 199.570328,118.123985 
	C222.290146,92.300484 246.332626,67.242279 268.968445,40.830368 
	C266.491669,38.907879 264.987152,39.322655 263.539185,39.599419 
	C233.618637,45.318295 203.695358,51.023151 173.785843,56.799267 
	C154.827438,60.460510 135.946777,64.567665 116.912399,67.767914 
	C110.548042,68.837952 105.976784,71.270172 101.741631,76.021881 
	C79.244751,101.262741 56.469486,126.255325 33.856510,151.393143 
	C32.294365,153.129730 30.194662,154.654160 29.430994,158.072815 
	C78.703743,148.263779 127.328880,138.583664 176.838486,128.727463 
	C175.750580,132.816238 173.471115,134.336960 171.667786,136.144547 
	C148.496719,159.370438 125.287415,182.558167 102.125008,205.792679 
	C100.786438,207.135391 98.488701,208.235962 99.189629,210.609421 
	C99.894768,212.997101 102.336678,212.689713 104.256210,212.975677 
	C136.023956,217.708359 167.786896,222.473969 199.565567,227.132278 
	C232.012985,231.888641 264.476990,236.531708 296.931030,241.243149 
	C298.747070,241.506805 300.742584,242.235077 302.186432,240.774780 
	C306.589600,236.321320 310.827362,231.704285 314.921936,227.370560 
	C314.022675,225.155228 312.438110,224.738632 311.274567,223.858582 
	C307.952332,221.345779 306.098206,218.143204 306.828979,213.935379 
	C307.581177,209.604126 310.282684,206.820679 314.498352,205.600266 
	C316.414978,205.045410 318.364319,204.439972 320.334686,204.267639 
	C324.648102,203.890381 326.736969,201.470474 327.799774,197.466537 
	C329.435760,191.303268 331.910828,185.366165 335.868927,180.388809 
	C343.417480,170.896378 352.856750,163.350525 365.572815,165.516113 
	C372.174713,166.640457 375.485962,164.705505 379.107361,160.411148 
	C383.797455,154.849564 382.137024,149.669983 374.860016,147.897705 
	C373.420441,147.547104 371.890564,147.531952 370.397491,147.442764 
	C365.244965,147.134979 360.070099,147.061966 354.940002,146.541840 
	C335.232330,144.543701 315.544128,142.353424 295.837006,140.349472 
	C288.728577,139.626648 288.364227,139.490387 287.988831,132.288589 
	C286.627563,106.172791 285.301483,80.055115 283.997284,53.936386 
	C283.706787,48.118900 284.684540,47.427933 290.687195,48.140167 
	C307.051453,50.081837 323.426025,51.937134 339.799774,53.798199 
	C359.815674,56.073238 379.831055,58.354519 399.854279,60.563786 
	C410.607666,61.750259 421.373566,62.827660 432.142212,63.867439 
	C434.257843,64.071709 436.922455,64.439987 437.698914,61.785175 
	C438.571594,58.801418 440.218842,56.214340 442.110077,52.464909 
	C421.190216,50.561508 401.033295,48.727524 379.968262,46.753605 
M160.878387,294.892914 
	C161.368973,299.018463 160.391403,301.906067 156.277832,304.296875 
	C153.353760,305.996399 151.532318,309.754822 149.508621,312.787750 
	C148.035599,314.995361 149.976761,316.118927 151.598801,317.005890 
	C156.708771,319.800049 161.846191,322.545105 167.001221,325.255493 
	C171.765030,327.760223 176.715744,328.132385 182.029480,327.117279 
	C190.646957,325.471069 198.663422,322.610199 206.049652,317.781494 
	C211.723236,314.072388 216.680817,314.604919 219.077515,319.156494 
	C220.502197,321.862152 222.436920,323.382019 224.975494,324.819397 
	C232.384018,329.014252 232.274734,337.738037 224.915283,342.043243 
	C222.728256,343.322632 220.360931,344.091858 217.837402,344.315735 
	C211.382172,344.888458 204.758057,344.700623 198.498001,346.122467 
	C177.228577,350.953308 156.454010,350.486481 136.451782,341.252350 
	C131.138641,338.799469 127.586220,340.658386 123.830132,343.732910 
	C121.082794,345.981720 120.701225,348.201935 123.665817,350.689697 
	C128.003082,354.329224 132.361069,357.963806 136.460236,361.863312 
	C145.751190,370.701843 149.965469,381.241516 147.821838,394.314636 
	C146.181000,404.321442 145.421387,414.476135 144.373795,424.575836 
	C143.534134,432.670929 145.564682,435.041016 153.595108,435.745605 
	C173.658783,437.505951 193.750854,439.010071 213.765793,441.213928 
	C219.131409,441.804749 221.167587,440.114044 222.848221,435.484619 
	C230.002609,415.777344 237.356628,396.141113 244.799118,376.540222 
	C259.511658,337.792633 274.344391,299.090729 289.094727,260.357483 
	C291.911804,252.960083 291.562347,252.502716 283.553009,251.431320 
	C253.039246,247.349503 222.471130,243.628708 192.029816,239.063110 
	C161.745682,234.521042 131.331024,230.972504 101.055412,226.411057 
	C96.766792,225.764923 95.062782,227.399567 95.456558,231.483856 
	C95.951492,236.617416 96.822639,241.723511 97.122765,246.865326 
	C97.930832,260.709076 101.973320,273.997375 103.889328,287.646088 
	C104.478653,291.844177 108.321854,291.890320 111.155357,292.434845 
	C114.516891,293.080841 115.197144,289.863190 115.478691,287.485535 
	C115.887482,284.033478 115.614510,280.505219 115.728111,277.012604 
	C115.925301,270.950531 118.483116,266.122711 123.489586,262.647400 
	C134.523132,254.988342 150.424759,256.530579 159.755966,266.154419 
	C165.998047,272.592255 166.857651,278.845703 162.298477,286.494171 
	C160.849533,288.924835 160.111313,291.311523 160.878387,294.892914 
M391.742462,210.663437 
	C383.595947,207.301636 375.084045,204.894196 367.207550,200.795456 
	C361.618195,197.886871 359.088745,199.017212 356.974579,205.031937 
	C354.780396,211.274414 353.154694,217.670868 350.511749,223.812790 
	C346.169647,233.903290 343.414185,235.696899 332.979614,231.574448 
	C327.652588,229.469879 324.091095,230.122940 320.570312,234.717056 
	C314.763580,242.293854 306.913757,248.087585 303.760559,257.918701 
	C298.376282,274.706085 292.103058,291.214172 285.992065,307.761597 
	C267.831451,356.936920 250.454300,406.404724 231.057236,455.119476 
	C229.377777,459.337341 230.390549,463.011261 233.918869,465.833282 
	C239.495148,470.293213 249.080490,469.905975 254.275146,465.028381 
	C256.991638,462.477600 258.883514,459.322296 256.884705,455.690216 
	C253.253098,449.091003 252.791809,441.693939 250.853271,434.669250 
	C249.455902,429.605621 250.595825,426.101685 254.492416,422.412384 
	C283.391632,395.050140 312.059631,367.443817 340.859985,339.976776 
	C342.574432,338.341705 343.932495,336.055756 347.005615,335.322510 
	C347.583038,338.321655 345.960846,340.338135 344.946106,342.470123 
	C342.853210,346.867432 343.293488,350.964508 346.656433,354.449768 
	C351.158203,359.115326 360.767639,359.843292 366.082245,356.146606 
	C370.684662,352.945251 372.263672,348.631470 369.833313,343.542847 
	C366.896912,337.394836 366.293121,330.752106 364.735992,324.303375 
	C363.678589,319.924103 365.032593,316.795685 368.311310,313.736755 
	C377.682770,304.993530 386.819366,295.996002 395.955994,287.004730 
	C401.229675,281.814941 401.154236,281.422394 397.390625,275.153381 
	C390.532654,263.730011 386.956146,251.447342 387.809998,238.024445 
	C388.271820,230.764542 390.608215,224.026550 393.440918,217.413376 
	C394.433868,215.095215 395.649689,212.659317 391.742462,210.663437 
M395.816803,256.584167 
	C397.094910,260.013184 398.039764,263.614868 399.710693,266.840393 
	C405.874023,278.738007 403.543732,276.906555 416.214325,274.161224 
	C420.821014,273.163116 421.916565,270.707703 420.522552,266.244812 
	C417.700226,257.209412 416.918030,248.077805 419.487305,238.707474 
	C421.663086,230.772354 426.150574,224.224075 430.894073,217.807983 
	C434.681427,212.685181 437.976105,207.307205 440.587372,201.530899 
	C443.661255,194.731247 442.925415,193.417084 435.844940,191.393143 
	C414.402374,185.263855 392.882050,179.382355 371.582458,172.789124 
	C363.159180,170.181732 356.016968,171.147995 348.885986,175.945755 
	C343.266602,179.726471 339.642548,184.903564 336.828796,190.891037 
	C331.963074,201.245041 331.908203,201.218430 342.477783,205.384018 
	C348.956512,207.937332 349.692383,207.895859 351.879822,201.546402 
	C354.846466,192.935211 361.373077,190.763947 369.349396,195.015518 
	C376.296814,198.718704 383.716797,201.173737 391.098602,203.774063 
	C401.268036,207.356339 403.179016,211.078705 398.799072,220.660034 
	C393.571686,232.095245 392.933472,243.742294 395.816803,256.584167 
M130.583801,425.685669 
	C137.657562,427.059387 137.952133,426.747040 138.736099,419.354340 
	C139.560577,411.579590 140.564377,403.823425 141.534088,396.064667 
	C142.539597,388.019592 142.993439,380.081726 137.885559,373.005035 
	C132.042618,364.910034 124.348007,358.824890 116.318298,353.105103 
	C114.618179,351.894043 112.586525,351.589050 110.598541,351.569855 
	C97.935432,351.447510 85.271187,351.444641 72.607994,351.327911 
	C69.345779,351.297821 67.600319,352.944763 67.109451,355.949371 
	C66.439438,360.050537 65.934181,364.180023 65.423935,368.305511 
	C64.109673,378.931793 58.899391,387.005249 49.704987,392.510040 
	C40.338184,398.117981 40.340607,398.125824 43.547005,408.562622 
	C43.742214,409.197998 44.013493,409.809631 44.234921,410.437408 
	C45.075611,412.820862 46.612320,413.823944 49.231400,413.392395 
	C53.338264,412.715698 57.477634,412.230469 61.608887,411.708954 
	C67.949585,410.908478 72.896187,408.212524 75.816223,402.172668 
	C78.277496,397.081757 81.261490,392.244812 83.757034,387.169006 
	C88.070236,378.396210 90.363770,376.630554 99.806541,378.919830 
	C107.364098,380.752014 115.865837,382.359711 118.028542,392.076111 
	C119.415359,398.306610 119.628395,404.653595 119.098412,410.970886 
	C118.085884,423.040009 117.978638,423.031006 130.583801,425.685669 
M449.219910,89.462006 
	C449.108551,92.456665 449.059052,95.455147 448.874451,98.445290 
	C448.284760,107.996490 444.165314,115.065384 435.277283,119.506432 
	C428.293884,122.995789 421.838318,127.525169 415.004852,131.335327 
	C407.706573,135.404663 403.582336,141.238358 403.384094,149.748978 
	C403.342590,151.532471 403.957977,153.884064 401.038147,154.890305 
	C398.034821,151.844406 397.490814,147.585556 395.794678,143.917847 
	C394.753143,141.665649 394.646759,138.351990 390.549133,139.845215 
	C389.944061,140.065704 388.824127,139.063400 388.020477,138.512894 
	C385.716980,136.935028 383.280457,136.294632 381.354462,138.734940 
	C379.502411,141.081604 381.100739,143.241806 382.759552,144.916656 
	C385.922180,148.109879 389.329224,151.047516 391.297791,155.241852 
	C393.561676,160.065460 395.990234,164.811722 398.259766,169.632797 
	C399.459137,172.180557 401.147125,173.933365 403.961426,174.771393 
	C414.809631,178.001709 425.589142,181.464264 436.450531,184.648178 
	C442.786774,186.505569 443.649109,185.758255 443.645386,178.935303 
	C443.639069,167.323944 444.782043,155.878708 450.362701,145.493851 
	C456.975067,133.189102 458.396729,119.893028 458.684937,106.349419 
	C458.901031,96.193024 458.628448,86.027138 458.695648,75.866295 
	C458.734039,70.064720 460.738800,64.378716 459.778351,58.498875 
	C459.349487,55.873405 458.450378,53.447796 455.588715,52.924911 
	C452.433563,52.348412 450.329834,54.466877 449.634369,57.119411 
	C448.963501,59.678276 447.439240,61.324181 445.363953,62.952335 
	C450.726471,71.019234 448.687347,79.919510 449.219910,89.462006 
M74.709488,288.202515 
	C66.749702,295.585663 67.193222,299.585541 76.758270,305.017090 
	C79.347389,306.487335 82.134827,307.655457 84.926575,308.709778 
	C88.462990,310.045288 88.682037,311.737762 86.333595,314.580719 
	C80.465309,321.684692 75.970200,329.644165 72.600883,338.207977 
	C70.453621,343.665680 71.162468,344.705383 76.929901,344.934845 
	C86.067352,345.298370 95.219421,345.389587 104.344070,345.944946 
	C110.089951,346.294647 115.221848,346.092346 118.397118,340.199524 
	C119.119743,338.858459 120.784958,337.815460 122.246674,337.118134 
	C129.272217,333.766754 132.964127,327.496490 136.851044,321.254944 
	C138.812836,318.104706 138.466339,316.327393 135.223969,314.510925 
	C126.810051,309.797150 118.500496,304.894958 110.195496,299.989716 
	C105.629242,297.292725 100.820343,295.937653 95.465324,296.178375 
	C92.503181,296.311554 89.502289,295.897003 86.539276,295.553345 
	C85.220360,295.400391 83.874489,294.800873 83.568031,293.277374 
	C83.244385,291.668396 84.507149,290.821991 85.635719,290.188538 
	C88.097488,288.806671 90.659988,287.604553 93.178566,286.323578 
	C95.935020,284.921600 96.497597,282.507507 95.388382,279.994385 
	C94.163460,277.219086 91.796936,278.248230 89.816032,279.173737 
	C84.693344,281.567108 79.556458,283.956909 74.709488,288.202515 
M122.218430,283.444519 
	C122.291801,286.975861 122.035019,290.507172 120.425499,293.680573 
	C118.538895,297.400299 120.232567,299.230621 123.144539,301.449188 
	C127.420906,304.707245 132.668167,304.885284 137.242493,306.944183 
	C142.969864,309.522034 143.763550,309.601837 147.546432,304.447968 
	C148.723633,302.844147 149.733459,301.118530 150.856323,299.473511 
	C154.836227,293.642914 154.379379,286.143097 158.279175,280.172119 
	C159.835297,277.789551 158.409424,274.677979 156.699158,272.235229 
	C151.921631,265.411469 141.517303,262.490479 132.348999,265.418243 
	C124.514084,267.920197 122.049454,272.077118 122.218430,283.444519 
M218.010956,337.732666 
	C220.670227,337.113159 223.720261,336.400360 223.448151,333.028107 
	C223.143936,329.258331 219.676849,329.509521 216.898666,329.189240 
	C214.995605,328.969879 212.861328,329.757599 211.487793,328.205688 
	C210.340698,325.938690 213.349503,324.917542 212.611465,322.960999 
	C209.650452,322.852051 209.717163,322.976776 207.208542,324.318481 
	C190.191391,333.420074 173.026306,338.845978 155.261917,326.055145 
	C154.726944,325.669952 154.092926,325.422241 153.504822,325.110931 
	C143.766434,319.955414 143.868057,320.015167 138.126053,329.778778 
	C136.223083,333.014526 136.572525,334.749237 140.133423,336.201630 
	C149.777344,340.135132 159.719040,342.642731 170.151505,342.837158 
	C186.028793,343.133057 201.339096,337.938965 218.010956,337.732666 
M433.745422,114.154716 
	C438.920380,107.198601 438.963684,96.033089 433.841400,89.407806 
	C430.021759,84.467400 422.450745,82.497627 416.133118,84.800583 
	C409.727600,87.135559 406.679169,91.967819 407.365875,99.298973 
	C407.737091,103.261734 408.681702,107.167198 409.212006,111.119392 
	C410.334534,119.485458 417.456726,123.296822 424.957947,119.381836 
	C427.760345,117.919235 430.422424,116.187889 433.745422,114.154716 
M28.820116,401.777100 
	C26.205175,402.234833 23.594704,402.720337 20.973944,403.141907 
	C18.713032,403.505524 17.369162,404.707855 17.179691,407.047607 
	C16.369884,417.047699 18.800148,426.157684 24.839350,434.204041 
	C26.439121,436.335541 28.692371,437.361664 31.435881,436.607452 
	C34.087158,435.878571 34.874290,433.650360 35.382244,431.332153 
	C35.912342,428.912933 35.636654,426.078674 36.822083,424.085266 
	C40.720463,417.529816 38.739719,411.444122 36.434425,405.108856 
	C35.134495,401.536469 33.516750,399.559753 28.820116,401.777100 
M399.353607,292.882050 
	C396.898346,294.957825 394.226685,297.145477 395.606415,300.790161 
	C397.023438,304.533325 400.568848,304.741486 403.971985,304.759766 
	C412.967194,304.808167 420.731476,301.275391 428.005615,296.387512 
	C430.015656,295.036835 431.219879,293.015228 429.669220,290.887695 
	C426.971039,287.185730 427.613159,281.197266 421.985840,279.563110 
	C421.429047,279.401459 420.708008,279.821259 420.059967,279.955444 
	C412.731934,281.472809 405.378723,282.920410 401.631744,290.652100 
	C401.291718,291.353760 400.478943,291.826324 399.353607,292.882050 
M472.652985,90.290306 
	C474.946564,82.645279 477.202667,74.988762 479.542755,67.357994 
	C482.846375,56.585148 482.062256,55.485401 470.668396,55.238190 
	C470.335724,55.230972 470.002045,55.230202 469.670746,55.202976 
	C467.127625,54.993988 466.225616,56.119549 466.107391,58.698772 
	C465.392273,74.297432 464.882355,89.896957 465.161072,105.513779 
	C465.190765,107.179665 465.366730,108.842934 465.474823,110.507416 
	C465.807404,110.522957 466.139954,110.538506 466.472534,110.554047 
	C468.459259,104.057678 470.445984,97.561310 472.652985,90.290306 
M130.793854,431.803040 
	C128.988892,431.485474 127.182152,431.177643 125.379272,430.848633 
	C117.868134,429.478027 116.087311,430.686859 114.486679,438.125885 
	C114.000687,440.384552 114.548653,442.140167 116.723366,443.078735 
	C124.980812,446.642456 133.401505,449.785736 141.988083,452.454926 
	C143.820129,453.024414 145.690735,452.473267 146.924988,450.845734 
	C148.122528,449.266510 147.538025,447.580231 146.606766,446.174805 
	C144.771378,443.405060 142.201569,440.991119 140.935425,438.005890 
	C139.073593,433.616272 135.964615,432.062866 130.793854,431.803040 
M331.491241,224.892090 
	C333.673279,225.680176 335.842590,226.506104 338.040833,227.246078 
	C340.415588,228.045441 342.822723,227.553040 343.249268,225.041061 
	C343.877686,221.340347 347.997894,218.260437 345.332489,214.006363 
	C345.096283,213.629364 344.524384,213.450653 344.091248,213.210815 
	C335.223633,208.300613 326.077454,207.553177 316.610596,211.340958 
	C314.620636,212.137146 313.104004,213.369949 312.938141,215.596893 
	C312.770477,217.847748 314.548340,218.789917 316.254242,219.437424 
	C321.053192,221.258926 325.908936,222.930801 331.491241,224.892090 
M383.645142,164.286758 
	C382.700409,165.603241 381.367371,166.722427 381.440948,168.877319 
	C384.144257,170.523773 386.965210,171.947205 390.460907,171.242950 
	C391.500488,168.330612 389.843414,166.300186 388.695526,164.178711 
	C387.376434,161.740875 385.771820,161.794327 383.645142,164.286758 
z"/>
</svg>