<?xml version="1.0" encoding="utf-8"?>
<!-- Generator: Adobe Illustrator 25.4.1, SVG Export Plug-In . SVG Version: 6.00 Build 0)  -->
<svg version="1.1" id="Layer_1" xmlns="http://www.w3.org/2000/svg" xmlns:xlink="http://www.w3.org/1999/xlink" x="0px" y="0px"
	 viewBox="0 0 542.5 542.5" style="enable-background:new 0 0 542.5 542.5;" xml:space="preserve">
<style type="text/css">
	.st0{fill:#FFFFFF;}
	.st1{fill:none;stroke:#FFFFFF;stroke-width:3.5;stroke-miterlimit:10;}
	.st2{fill:#ED2027;}
</style>
<path d="M541.3,244.8v53c-6,62.5-33.2,120.4-78.2,165.3c-51.2,51.2-119.3,79.5-191.8,79.5s-140.6-28.2-191.8-79.5
	C34.5,418.1,7.3,360.2,1.3,297.8v-53c6-62.5,33.2-120.4,78.2-165.3C130.7,28.2,198.8,0,271.3,0s140.6,28.2,191.8,79.5
	C508,124.4,535.3,182.3,541.3,244.8z"/>
<g>
	<path class="st0" d="M144.2,365.4L144.2,365.4c-4.2,0-7.6-3.4-7.6-7.6l-2.9-71.4c0-4.2,3.4-7.6,7.6-7.6h0c4.2,0,7.6,3.4,7.6,7.6
		l2.9,71.4C151.8,362.1,148.4,365.4,144.2,365.4z"/>
	<g>
		<g>
			<line class="st1" x1="140.9" y1="193.3" x2="180.2" y2="193.3"/>
			<line class="st1" x1="249.1" y1="195.1" x2="318.8" y2="195.1"/>
			<g>
				<path class="st1" d="M400.3,195.1c3.1,0,29.2-2,29.2,20s0,166.2,0,166.2h-12.2"/>
				<path class="st1" d="M402.5,286.6c0,0,27.1,0.3,27.1,22.9"/>
			</g>
			<line class="st1" x1="210.8" y1="287" x2="252" y2="287"/>
			<line class="st1" x1="154.4" y1="287" x2="186.8" y2="287"/>
			<polyline class="st1" points="106.3,324.3 106.3,380.2 322.8,380.2 			"/>
		</g>
	</g>
	<g>
		<g>
			<path class="st2" d="M541.3,244.8c-6-62.5-33.2-120.4-78.2-165.3C411.8,28.2,343.7,0,271.3,0S130.7,28.2,79.5,79.4
				C34.5,124.4,7.3,182.3,1.3,244.8C0.4,253.5,0,262.4,0,271.3c0,8.9,0.4,17.7,1.3,26.5c6,62.5,33.2,120.4,78.2,165.3
				c51.2,51.2,119.3,79.5,191.8,79.5s140.6-28.2,191.8-79.5c44.9-44.9,72.2-102.9,78.2-165.3c0.8-8.8,1.3-17.6,1.3-26.5
				C542.5,262.4,542.1,253.5,541.3,244.8z M428.7,444.6c-9.1,8.3-18.9,15.9-29.2,22.7c-36.8,24.2-80.9,38.2-128.2,38.2
				C142.1,505.5,37,400.4,37,271.3c0-24.8,3.9-48.6,11-71.1c1.3-4.2,2.8-8.3,4.3-12.4c13.6-35.6,35.7-67.1,63.8-92
				c9.2-8.2,19.1-15.6,29.5-22.3C182,50.4,225.1,37,271.3,37c8.7,0,17.2,0.5,25.7,1.4h0c7.5,0.8,14.9,2,22.2,3.5
				c30.7,6.4,59.1,18.8,84.1,35.9c5.1,3.5,10,7.1,14.8,11c0,0,0,0,0,0c28.4,22.9,51.4,52.3,66.7,86c2.3,5.1,4.5,10.3,6.4,15.6
				c9.3,25.2,14.4,52.5,14.4,80.9C505.5,339.9,475.9,401.7,428.7,444.6z"/>
		</g>
	</g>
	<g>
		<g>
			
				<rect x="254" y="17.5" transform="matrix(0.7952 -0.6063 0.6063 0.7952 -108.0959 220.5866)" class="st2" width="37" height="505.5"/>
		</g>
	</g>
	<g>
		<g>
			<circle class="st0" cx="396.2" cy="102.7" r="25.9"/>
			<path class="st0" d="M349.2,331.2l-26.7-35.4V209c0-0.7,0.1-1.4,0.3-2.1l13.3-54.8c1.4-5.9,1-12.1-1.2-17.7l-41-103.7
				c-1.9-4.8,0.4-10.2,5.2-12.2l0,0c4.8-2,10.3,0.3,12.3,5l41.5,98.4l62.4,22.9c1.2,0.4,2.2,1.3,2.9,2.3l28.2,43.4l37-15.4
				c4.2-1.8,9.1,0.1,11.1,4.3l0,0c2.1,4.4,0,9.7-4.5,11.6l-51.9,21.3l-29.2-35.4c-2.1-2.6-6.3-2-7.6,1.2l-17.6,43.3
				c-0.9,2.2-1.1,4.6-0.6,6.9l31.1,141.6c1.4,6.3-2.5,12.6-8.9,14.1h0c-6.3,1.5-12.7-2.3-14.3-8.6l-31.5-122.5
				c-1.6-6.3-11-5.1-10.9,1.4L349.2,331.2z"/>
		</g>
	</g>
	<g>
		<g>
			<g>
				<path class="st0" d="M127.8,286.7h-3.4c-1.4,0-2.7,0.7-3.4,1.8L80,351c-2.8,4.3-8.6,5.5-12.8,2.7h0c-4.4-2.9-5.2-7.7-2.2-12
					l42.3-62.8l-4.2-41l-37.9-17.5c-1.9-0.9-3.5-2.2-4.7-3.8l-26.8-35.6c-1.9-2.5-1.4-6.1,1.1-8h0c2.6-2,6.3-1.4,8.2,1.3L66.5,208
					l35.5,9.9l41.2-1.5c1.8-0.1,3.6,0.7,4.8,2l56.8,63.7c1.9,2.1,1.7,5.3-0.2,7.2v0c-2.1,2.1-5.5,2-7.5-0.2l-42.2-45.9
					c-3.6-3.9-10-1-9.5,4.2l2.4,28.6C147.7,276,130.8,269,127.8,286.7z"/>
			</g>
			<g>
				<circle class="st0" cx="119.2" cy="195.1" r="16"/>
			</g>
		</g>
	</g>
</g>
</svg>
